<svg width="20" height="20" viewBox="0 0 20 20" fill="none" xmlns="http://www.w3.org/2000/svg">
<path d="M3.16178 10.0242C3.60943 7.78608 3.83324 6.66697 4.5728 5.94619C4.70949 5.81297 4.85737 5.69175 5.0148 5.58384C5.86662 5 7.00788 5 9.29042 5H10.7095C12.9921 5 14.1333 5 14.9852 5.58384C15.1426 5.69175 15.2904 5.81297 15.4272 5.94619C16.1667 6.66697 16.3905 7.78608 16.8382 10.0242C17.4808 13.2376 17.8022 14.8442 17.0624 15.9827C16.9285 16.1889 16.7722 16.3796 16.5963 16.5513C15.625 17.5 13.9865 17.5 10.7095 17.5H9.29042C6.01343 17.5 4.37495 17.5 3.40364 16.5513C3.22777 16.3796 3.07143 16.1889 2.9375 15.9827C2.19778 14.8442 2.51912 13.2376 3.16178 10.0242Z" stroke="#2D3B36"/>
<path opacity="0.5" d="M12.4998 8.33317C12.9601 8.33317 13.3332 7.96007 13.3332 7.49984C13.3332 7.0396 12.9601 6.6665 12.4998 6.6665C12.0396 6.6665 11.6665 7.0396 11.6665 7.49984C11.6665 7.96007 12.0396 8.33317 12.4998 8.33317Z" fill="#2D3B36"/>
<path opacity="0.5" d="M7.49984 8.33317C7.96007 8.33317 8.33317 7.96007 8.33317 7.49984C8.33317 7.0396 7.96007 6.6665 7.49984 6.6665C7.0396 6.6665 6.6665 7.0396 6.6665 7.49984C6.6665 7.96007 7.0396 8.33317 7.49984 8.33317Z" fill="#2D3B36"/>
<path opacity="0.5" d="M7.5 4.99984V4.1665C7.5 2.7858 8.61925 1.6665 10 1.6665C11.3807 1.6665 12.5 2.7858 12.5 4.1665V4.99984" stroke="#2D3B36" stroke-linecap="round"/>
</svg>
